<svg id="Calque_1" data-name="Calque 1" xmlns="http://www.w3.org/2000/svg" viewBox="0 0 175 30"><defs><style>.cls-1{fill:#221f20;}</style></defs><path class="cls-1" d="M23.89,15.94H17.6v5.83h7v1.75h-9.1V7.34h8.74V9.09H17.6v5.12h6.29Z"/><path class="cls-1" d="M27.25,15.05c0-1.2,0-2.19-.1-3.15H29l.13,1.92h0A4.28,4.28,0,0,1,33,11.64c1.61,0,4.11,1,4.11,4.94v6.94H35v-6.7c0-1.87-.7-3.43-2.69-3.43a3,3,0,0,0-2.84,2.16,3.19,3.19,0,0,0-.14,1v7H27.25Z"/><path class="cls-1" d="M48.85,23.09a7.77,7.77,0,0,1-3.34.67c-3.5,0-5.78-2.38-5.78-5.93A5.9,5.9,0,0,1,46,11.66a7,7,0,0,1,2.93.6l-.48,1.63A5,5,0,0,0,46,13.34c-2.67,0-4.11,2-4.11,4.4a4,4,0,0,0,4,4.34,5.9,5.9,0,0,0,2.59-.58Z"/><path class="cls-1" d="M51.32,15.53c0-1.37,0-2.55-.1-3.63h1.85l.07,2.28h.1a3.48,3.48,0,0,1,3.22-2.54,2.2,2.2,0,0,1,.6.07v2a3.14,3.14,0,0,0-.72-.07,3,3,0,0,0-2.84,2.71,7.12,7.12,0,0,0-.09,1v6.19H51.32Z"/><path class="cls-1" d="M60.1,18.09a3.73,3.73,0,0,0,4,4,7.79,7.79,0,0,0,3.22-.6L67.67,23a9.39,9.39,0,0,1-3.87.72c-3.58,0-5.71-2.35-5.71-5.86s2.06-6.26,5.45-6.26c3.79,0,4.8,3.33,4.8,5.47a8.79,8.79,0,0,1-.07,1Zm6.2-1.51c0-1.34-.55-3.43-2.93-3.43-2.14,0-3.07,2-3.24,3.43Z"/><path class="cls-1" d="M86.24,23.52c-.45-.46-.89-.91-1.51-1.58A6.64,6.64,0,0,1,80,23.78c-3.14,0-5-2.11-5-4.53a5.31,5.31,0,0,1,3.17-4.73v-.07a5.58,5.58,0,0,1-1.34-3.39,3.92,3.92,0,0,1,4.1-4,3.36,3.36,0,0,1,3.58,3.43c0,1.7-1,3.05-3.56,4.32v.07c1.37,1.59,2.91,3.36,3.94,4.52a11.76,11.76,0,0,0,1.56-4.73H88.4a12.25,12.25,0,0,1-2.33,6c.87.92,1.71,1.83,2.67,2.86ZM83.7,20.74c-1-1.06-2.76-3-4.56-5.09a4,4,0,0,0-2.09,3.29,3.19,3.19,0,0,0,3.31,3.26A4.53,4.53,0,0,0,83.7,20.74Zm-4.92-9.87A4.5,4.5,0,0,0,80,13.77c1.63-.93,2.69-1.8,2.69-3.16a1.9,1.9,0,0,0-1.87-2.09A2.1,2.1,0,0,0,78.78,10.87Z"/><path class="cls-1" d="M95.72,7.34h2.09V21.77h6.91v1.75h-9Z"/><path class="cls-1" d="M107.82,18.09a3.72,3.72,0,0,0,4,4,7.79,7.79,0,0,0,3.22-.6l.36,1.51a9.39,9.39,0,0,1-3.87.72c-3.58,0-5.71-2.35-5.71-5.86s2.06-6.26,5.45-6.26c3.79,0,4.8,3.33,4.8,5.47a8.79,8.79,0,0,1-.07,1ZM114,16.58c0-1.34-.55-3.43-2.93-3.43-2.14,0-3.07,2-3.24,3.43Z"/><path class="cls-1" d="M119.48,11.9l2.28,6.53a28.64,28.64,0,0,1,.93,3h.08c.26-1,.6-1.92,1-3L126,11.9h2.2l-4.56,11.62h-2L117.22,11.9Z"/><path class="cls-1" d="M139.93,20.35c0,1.2,0,2.26.09,3.17h-1.87l-.12-1.9H138a4.35,4.35,0,0,1-3.84,2.16c-1.82,0-4-1-4-5.08V11.9h2.12v6.43c0,2.21.67,3.7,2.59,3.7a3,3,0,0,0,3-3V11.9h2.11Z"/><path class="cls-1" d="M143.43,15.53c0-1.37,0-2.55-.1-3.63h1.85l.07,2.28h.1a3.48,3.48,0,0,1,3.22-2.54,2.25,2.25,0,0,1,.6.07v2a3.14,3.14,0,0,0-.72-.07,3,3,0,0,0-2.84,2.71,7.12,7.12,0,0,0-.09,1v6.19h-2.09Z"/><path class="cls-1" d="M152.21,18.09a3.73,3.73,0,0,0,4,4,7.79,7.79,0,0,0,3.22-.6l.36,1.51a9.39,9.39,0,0,1-3.87.72c-3.58,0-5.71-2.35-5.71-5.86s2.06-6.26,5.45-6.26c3.79,0,4.8,3.33,4.8,5.47a8.79,8.79,0,0,1-.07,1Zm6.2-1.51c0-1.34-.56-3.43-2.93-3.43-2.14,0-3.07,2-3.24,3.43Z"/></svg>